# xmcd
#
# Track frame offsets:
#	150
#	11752
#	21588
#	34173
#	46447
#	56631
#	68245
#	81157
#	93149
#	106918
#	117011
#	127010
#	138566
#	151678
#	163212
#	172656
#	184507
#	195577
#	207055
#	217691
#
# Disc length: 3040 seconds
#
# Revision: 0
# Processed by: cddbd v1.5.2PL0 Copyright (c) Steve Scherf et al.
# Submitted via: EasyCDDAExtractor 16.0.6.1
#
DISCID=070bde14
DTITLE=Artisti Vari - Country and Western Ladies [CD10)
DYEAR=2014
DGENRE=country
TTITLE0=Patsy Cline - Walkin' After Midnight
TTITLE1=Goldie Hill - Ain't Gonna Wash My Face For A Month
TTITLE2=Patsy Montana - Pride Of The Praire
TTITLE3=Skeeter Davis - Your Cheatin' Heart
TTITLE4=The Maddox Brothers and Rose - The Hiccough Song
TTITLE5=Kitty Wells and Red Foley - As Long As I Live
TTITLE6=Jean Shepard - You Win Again
TTITLE7=Betty Foley - Old Moon
TTITLE8=Patti Page - Tennessee Waltz
TTITLE9=Kitti Wells - Make Up Your Mind
TTITLE10=The Maddox Brothers and Rose - Kiss Me Like Crazy
TTITLE11=Jean Shepard - I Love You Because
TTITLE12=Patsy Montana - I Wanna Be A Western Cowgirl
TTITLE13=Goldie Hill - Please Don't Betray Me
TTITLE14=Patti Page - Don't Be Cruel
TTITLE15=Skeeter Davis - Under Your Spell Again
TTITLE16=Goldie Hill and Justine Tubb - Sure Fire Kisses
TTITLE17=The Maddox Brothers and Rose - Take A Gamble On Me
TTITLE18=Patsy Cline - Honky Tonk Merry-Go-Round
TTITLE19=Kitti Wells - A Wedding Ring Ago
EXTD=
EXTT0=
EXTT1=
EXTT2=
EXTT3=
EXTT4=
EXTT5=
EXTT6=
EXTT7=
EXTT8=
EXTT9=
EXTT10=
EXTT11=
EXTT12=
EXTT13=
EXTT14=
EXTT15=
EXTT16=
EXTT17=
EXTT18=
EXTT19=
PLAYORDER=
